<svg xmlns="http://www.w3.org/2000/svg" viewBox="0 0 1201.09 2040.72">
	<defs>
		<style>
			.cls-1{fill:#d7e7f2;}.cls-2{fill:#f0f4f7;}
		</style>
	</defs>
	<title>
		banner-a
	</title>
	<g id="Layer_2" data-name="Layer 2">
		<g id="Art_2">
			<polygon class="cls-1" points="0.93 0.72 1200.93 0.72 1200.93 2040.72 0.93 2040.72 0.93 663.64 0.93 0.72" />
			<path class="cls-2" d="M.93,138.76s10.59,109.8,20.31,121.68S46.08,305.8,97.92,305.8h103l-1.49,33.48H.93Z" />
			<path class="cls-2" d="M199.44,443v-95s-63.72,5.4-92.88,8.64-79.92,13-79.92,13S85,370.6,113,381.4s61,45.72,67,61.56Z" />
			<path class="cls-2" d="M.93,1160.44s10.59,109.8,20.31,121.68,24.84,45.36,76.68,45.36h103L199.44,1361H.93Z" />
			<path class="cls-2" d="M199.44,1464.64v-95s-63.72,5.4-92.88,8.64-79.92,13-79.92,13,58.32,1.08,86.4,11.88,61,45.72,67,61.56Z" />
			<path class="cls-2" d="M797.76,1795.76v-95s-63.72,5.4-92.88,8.64-79.92,13-79.92,13,58.32,1.08,86.4,11.88,61,45.72,67,61.56Z" />
			<path class="cls-2" d="M.93,663.64l183.39-24.48s8.64-1.2,15.12,1.2c3.6,6.31,0,25,0,30.48V741.4H151.2s7.2-44.64-38.16-44.64H0Z" />
			<path class="cls-2" d="M113,811.24h86.4v300.24H26.64s264.24-115.2,41-300.24Z" />
			<path class="cls-2" d="M.93,1618.36l183.39-24.48s8.64-1.2,15.12,1.2c3.6,6.31,0,25,0,30.48v70.56H151.2s7.2-44.64-38.16-44.64H0Z" />
			<path class="cls-2" d="M113,1766h79.07v274.76H34S275.79,1935.3,71.53,1766Z" />
			<path class="cls-2" d="M199.44,339.28V.72h15.12v147.4H400.32V339.28s-36-32.93-30.24-84.68c-4.32-37.36,11.52-78.56-43.2-84.6s-96.48-7.48-96.48-7.48L213.12,339.28Z" />
			<path class="cls-2" d="M200.52,678.4,201,407.32h14.6v145.8S208.08,622.24,288,632H400.32v48.76Z" />
			<path class="cls-2" d="M199.44,1361s6.48-396.36,9.36-418,14.4-110.88,14.4-110.88H378.72s-155.52-33.2-155.52,188.6c0,15.88,177.12,31.72,177.12,31.72v308.28s-34.56-24.6-36-88C360,1159,414.72,1075.48,246.24,1058.2c-8.64,61.92-34.56,301-34.56,301Z" />
			<path class="cls-2" d="M588.24,660.74s6.85-396.36,9.9-418S613.37,131.9,613.37,131.9H777.86S613.37,98.7,613.37,320.5c0,15.88,187.34,31.72,187.34,31.72V660.5s-36.56-24.6-38.08-88C758.06,458.78,815.94,375.26,637.74,358c-9.14,61.92-36.55,301-36.55,301Z" />
			<path class="cls-2" d="M201,1430.08H217.8s2.16,148,9.72,169.56,8.64,61.56,137.16,59.4v41.68H201Z" />
			<path class="cls-2" d="M201,2040.72s30.8-212.12,45.92-235.88H378.72S275,1848.48,251.28,1922.78s-43.56,117.94-43.56,117.94Z" />
			<path class="cls-2" d="M801.7,138.76S812.29,248.56,822,260.44s24.84,45.36,76.68,45.36h103l-1.49,33.48H801.7Z" />
			<path class="cls-2" d="M1000.21,443v-95s-63.72,5.4-92.88,8.64-79.92,13-79.92,13,58.32,1.08,86.4,11.88,61,45.72,67,61.56Z" />
			<path class="cls-2" d="M801.7,1160.44s10.59,109.8,20.31,121.68,24.84,45.36,76.68,45.36h103l-1.49,33.48H801.7Z" />
			<path class="cls-2" d="M600.93,820.2S611.52,930,621.24,941.88s24.84,45.36,76.68,45.36h103l-1.49,33.48H600.93Z" />
			<path class="cls-2" d="M1000.21,1464.64v-95s-63.72,5.4-92.88,8.64-79.92,13-79.92,13,58.32,1.08,86.4,11.88,61,45.72,67,61.56Z" />
			<path class="cls-2" d="M200.4,95.76V.72s-63.72,5.4-92.88,8.64-79.92,13-79.92,13S85.92,23.4,114,34.2s61,45.72,67,61.56Z" />
			<path class="cls-2" d="M801.7,663.64l183.39-24.48s8.64-1.2,15.12,1.2c3.6,6.31,0,25,0,30.48V741.4H952s7.2-44.64-38.16-44.64h-113Z" />
			<path class="cls-2" d="M913.81,811.24h86.4v300.24H827.41s264.24-115.2,41-300.24Z" />
			<path class="cls-2" d="M801.7,1618.36l183.39-24.48s8.64-1.2,15.12,1.2c3.6,6.31,0,25,0,30.48v70.56H952s7.2-44.64-38.16-44.64h-113Z" />
			<path class="cls-2" d="M913.81,1766h79.07v274.76H834.74S1076.56,1935.3,872.3,1766Z" />
			<path class="cls-2" d="M1000.21,339.28V.72h15.12v147.4h185.76V339.28s-36-32.93-30.24-84.68c-4.32-37.36,11.52-78.56-43.2-84.6s-96.48-7.48-96.48-7.48l-17.28,176.76Z" />
			<path class="cls-2" d="M1001.29,678.4l.52-271.08h14.6v145.8s-7.56,69.12,72.36,78.84h112.32v48.76Z" />
			<path class="cls-2" d="M1000.21,1361s6.48-396.36,9.36-418S1024,832.12,1024,832.12h155.52S1024,798.92,1024,1020.72c0,15.88,177.12,31.72,177.12,31.72v308.28s-34.56-24.6-36-88c-4.32-113.76,50.4-197.28-118.08-214.56-8.64,61.92-34.56,301-34.56,301Z" />
			<path class="cls-2" d="M1001.81,1430.08h16.76s2.16,148,9.72,169.56,8.64,61.56,137.16,59.4v41.68H1001.81Z" />
			<path class="cls-2" d="M1001.81,2040.72s30.8-212.12,45.92-235.88h131.76s-103.68,43.64-127.44,117.94-43.56,117.94-43.56,117.94Z" />
			<path class="cls-2" d="M401.76,176.2V125.08h47.52S401,133,401.76,176.2Z" />
			<path class="cls-2" d="M470.88,340.36l-70.56-1.08s-2.9-94.68,1.43-90.36S399.6,340.36,470.88,340.36Z" />
			<path class="cls-2" d="M401.76,1196.56v-51.12h47.52S401,1153.36,401.76,1196.56Z" />
			<path class="cls-2" d="M470.88,1360.72l-70.56-1.08s-2.9-94.68,1.43-90.36S399.6,1360.72,470.88,1360.72Z" />
			<path class="cls-2" d="M401,745V680.72H600.93V745h-22s-5-46.08-33.12-48.24c-31,0-95,1.44-95,1.44S422.64,711.88,419,745Z" />
			<path class="cls-2" d="M600.93,680.72H501s75.37-12,80.77-73.6c5.4-42.12,9.72-146.88,9.72-146.88h9.45Z" />
			<path class="cls-2" d="M401,1766v-64.28H600.93V1766h-22s-5-46.08-33.12-48.24c-31,0-95,1.44-95,1.44S422.64,1732.84,419,1766Z" />
			<path class="cls-2" d="M600.93,1701.68H501s75.37-12,80.77-73.6c5.4-42.12,9.72-146.88,9.72-146.88h9.45Z" />
			<path class="cls-2" d="M600.93,853.72v167H472.32s59.76-20.84,91.44-26.6c16.56-2.88,15.12-7.92,19.44-26.64S600.93,853.72,600.93,853.72Z" />
			<path class="cls-2" d="M600.93,64.28V0H800.82V64.28H778.77s-5-46.08-33.12-48.24c-31,0-95,1.44-95,1.44s-28.08,13.68-31.68,46.8Z" />
			<path class="cls-2" d="M800.82,173V340H672.21s59.76-20.84,91.44-26.6c16.56-2.88,15.12-7.92,19.44-26.64S800.82,173,800.82,173Z" />
			<path class="cls-2" d="M600.93,1867.05v167H472.32s59.76-20.84,91.44-26.6c16.56-2.88,15.12-7.92,19.44-26.64S600.93,1867.05,600.93,1867.05Z" />
			<path class="cls-2" d="M659.52,2040.72H800.93V1766H781.56s6.48,187.92-29.16,204.12C717.84,1982,659.52,1996,659.52,1996Z" />
			<path class="cls-2" d="M754.08,1700l46.56,1v-70.08S797.28,1699,754.08,1700Z" />
			<path class="cls-2" d="M711.36,1359.88h89.57l-.29,96.12S802.08,1378.24,711.36,1359.88Z" />
			<path class="cls-2" d="M684,1361l-83.07-1.08V1145.44H684s-67.68-.6-69.12,51.12c0,40.2,2.88,94.92,2.88,94.92S619.57,1349.11,684,1361Z" />
		</g>
	</g>
</svg>
