<svg xmlns="http://www.w3.org/2000/svg" viewBox="0 0 1200 951.12"><defs><style>.cls-1{fill:#c1272d;}</style></defs><title>banner-hands</title><g id="Layer_2" data-name="Layer 2"><g id="Layer_2-2" data-name="Layer 2"><path class="cls-1" d="M352.82,118.07l-12.41-3.36a18.8,18.8,0,0,0-23.07,13.23L211.51,518.29a18.8,18.8,0,0,1-23.07,13.23l-11.93-3.23a18.81,18.81,0,0,1-13.23-23.07l71.83-264.93a18.8,18.8,0,0,0-13.23-23.07l-12.4-3.36a18.81,18.81,0,0,0-23.07,13.23L107.84,516.88a18.8,18.8,0,0,1-23.07,13.23l-11.93-3.23a18.8,18.8,0,0,1-13.22-23.07l56.93-210a18.82,18.82,0,0,0-13.23-23.07l-12.4-3.36a18.8,18.8,0,0,0-23.07,13.23L1.53,525.21a43.86,43.86,0,0,0,23.42,51L274.63,695.51A77.47,77.47,0,0,0,358,684.78l131.39-111A18.81,18.81,0,0,0,492.27,548L482,534.53a18.79,18.79,0,0,0-26.68-3.33l-71.17,56.66a18.8,18.8,0,0,1-29.86-19.62l74.46-275.46a18.8,18.8,0,0,0-13.23-23.06l-12.18-3.3a18.8,18.8,0,0,0-23.07,13.23L322.21,493.74A18.79,18.79,0,0,1,299.14,507l-11.92-3.23A18.81,18.81,0,0,1,274,480.66L366,141.14A18.8,18.8,0,0,0,352.82,118.07Z"/><path class="cls-1" d="M426.11,6.75,407.64,20.33c-14.92,11-18.49,31.49-7.95,45.82L810,623.94c10.54,14.33,7,34.84-8,45.82l-17.76,13.06c-14.93,11-35.57,8.27-46.11-6.05L459.7,298.21c-10.53-14.33-31.17-17-46.1-6.06l-18.47,13.59c-14.93,11-18.49,31.49-8,45.81l304.59,414.1c10.54,14.33,7,34.84-8,45.82l-17.76,13.06c-14.93,11-35.58,8.27-46.11-6l-220.69-300c-10.54-14.32-31.18-17-46.11-6.05L334.67,526c-14.92,11-18.49,31.49-7.95,45.82L583.79,921.28c21.47,29.2,61.63,38.24,95.44,21.47L1121,723.62c48.65-24.13,79.58-73.65,79-126.54l-3-298.53c-.17-17.37-14.11-31-31.7-31.06l-29.83-.06c-18.55,0-34.1,15-34.45,33.34l-3,158.06a33.15,33.15,0,0,1-3.85,14.82,34.69,34.69,0,0,1-10.15,11.78c-14.92,11-35.54,8.27-46.09-6L748.05,86.08c-10.54-14.31-31.16-17-46.09-6L683.83,93.39c-14.93,11-18.49,31.49-8,45.82l225,305.92c10.53,14.32,7,34.83-8,45.81L875.17,504c-14.92,11-35.57,8.27-46.1-6.06L472.22,12.8C461.68-1.52,441-4.23,426.11,6.75Z"/></g></g></svg>