<svg xmlns="http://www.w3.org/2000/svg" viewBox="0 0 1265.07 1116.86">
	<defs>
		<style>
			.cls-1{fill:#1c1c1c;}.cls-2{fill:#f8f8f8;}.cls-3{fill:#898989;}.cls-4{fill:#b7b7b7;}
		</style>
	</defs>
	<title>
		Mike Abolarin
	</title>
	<g id="Layer_2" data-name="Layer 2">
		<g id="Art_2">
			<path class="cls-1" d="M728,1097.14l.64-1.08c.54-.9,1.1-1.82,1.68-2.75l1.06-1.67c.57-.89,1.15-1.79,1.76-2.71l1.27-1.9q2.77-4.11,6-8.56c.43-.6.87-1.19,1.31-1.79q1.77-2.4,3.67-4.89c.66-.87,1.34-1.75,2-2.64l1.37-1.76c6.48-8.29,13.86-17.2,22-26.57q5-5.76,10.32-11.75l.07-.07,2.7-3q5.37-6,11-12.14c6.75-7.34,13.8-14.84,21.06-22.45l5.88-6.13c9.36-9.71,19-19.57,28.9-29.45l3.29-3.29,6.62-6.59,3.33-3.29q5.12-5.07,10.28-10.12l6.45-6.29q5-4.9,10.09-9.76,3.36-3.24,6.72-6.46,6.72-6.43,13.39-12.76l3.34-3.15,3.32-3.13c11.49-10.83,22.8-21.31,33.7-31.28l5-4.59,3.1-2.81,3.07-2.78c16.34-14.78,31.52-28.16,44.75-39.45,1.64-1.4,3.26-2.78,4.85-4.12q3.71-3.13,7.18-6,1.71-1.44,3.36-2.79l2.82-2.32,3.75-3,4.07-3.25,3.54-2.76c1-.75,1.9-1.47,2.81-2.16l1.73-1.3c1.17-.88,2.28-1.69,3.33-2.45.78-.56,1.53-1.1,2.25-1.6l.7-.48c.69-.47,1.35-.92,2-1.33l.55-.35,1-.65c.83-.51,1.59-1,2.26-1.31l.67-.34.1,0c7.56,2.16,80.64,7.92,112.68,62.28,5.4,3.6,25.56,23.76,28.08,42.84,4.68,3.24,70.39,46.44,70.39,83.88v154.36H.25V1088s15-99.36,24.32-102.24c2.16-13,1.44-46.8,6.48-59,0-15.12-.72-104.4,12.24-139.68,7.92-34.56,19.44-77,18-79.92S100.65,626,128,610.67c10.8-6.48,17.76-9.84,20.88-8.88,3.6-1.92,55-30.72,97.44-24.24,8.26-.83,48.19-2.55,60.21-4.39,6,15.93,26.62,70.88,29.07,84.79a63.58,63.58,0,0,0,2.14,7.52h0c-.57,1.95-62.52,215.55-44.07,295.11,1.25-34.56,3.41-146.88,35.81-222.48,1.08,14,1.8,70.08,10.92,91.2s14.89,25.44,20.65,28.32c-7.69-12.48-42.09-148.28-18.89-180.22a265,265,0,0,0,16.09,32.91v0c-.73,5.66-.41,15.63-.36,16.84v.12C357.38,743.4,354.18,1021.73,764,849c41.76-18.72,157.19-88.7,131.51-163.51a148,148,0,0,1,44.89,26.95c3.12-.48,23-10.68,47.88,11.64,7.92,2.88,51.12,23.4,65.88,49.68-1.14,0-2.29,0-3.44.11l-1.73.1-1.73.13c-1.25.1-2.51.23-3.77.38l-1.72.21-1.42.2c-.9.13-1.79.27-2.69.43-1.14.19-2.27.4-3.41.63-.55.11-1.11.22-1.67.35q-2.46.53-4.94,1.16c-.53.13-1.05.27-1.58.42s-1.29.35-1.94.54l-1.43.41-1.71.52-1.87.59c-1.07.35-2.15.71-3.23,1.09l-1.31.47c-.74.26-1.49.54-2.23.82-2.76,1-5.53,2.16-8.3,3.38l-.84.37c-1.49.65-3,1.34-4.47,2.05l-1.7.82-1.47.72-1.7.85c-1.13.57-2.27,1.16-3.4,1.77-.57.29-1.13.6-1.7.91l-1.7.93c-.57.31-1.14.62-1.7.95-1.09.61-2.18,1.23-3.27,1.87-.61.35-1.22.71-1.84,1.09s-1.13.67-1.7,1l-2,1.23-2.4,1.5-2.4,1.53q-5.1,3.3-10.19,6.91c-.57.39-1.13.8-1.7,1.21-1.7,1.21-3.39,2.44-5.08,3.71l-1.25.94c-.85.63-1.7,1.27-2.54,1.92-1.13.86-2.27,1.74-3.4,2.63l-1.92,1.51L943.32,824q-3.55,2.87-7.1,5.86-1.68,1.41-3.35,2.85c-1.12,1-2.23,1.92-3.34,2.9s-2.23,2-3.34,3-2.22,2-3.33,3q-8.31,7.54-16.49,15.62c-.5.48-1,1-1.49,1.47l-1.49,1.49c-.48.47-1,1-1.43,1.43q-5.76,5.77-11.42,11.77c-.92,1-1.83,1.92-2.73,2.89s-1.81,1.93-2.71,2.91q-3.37,3.63-6.7,7.31-2,2.25-4,4.51c-.53.59-1.05,1.17-1.56,1.76q-3.9,4.39-7.73,8.85c-.67.77-1.34,1.54-2,2.32q-8.57,10-16.78,20.16-2.41,3-4.78,6t-4.72,6q-2.12,2.68-4.2,5.37L829.79,945c-6.54,8.47-12.86,16.91-18.94,25.23l-2.59,3.56q-5.16,7.11-10.06,14l-2.43,3.45-2.41,3.43c-.8,1.14-1.59,2.28-2.37,3.41s-1.57,2.26-2.33,3.37q-2.34,3.38-4.57,6.67c-1.51,2.2-3,4.38-4.43,6.53-12.64,18.75-23.43,35.68-31.89,49.35l-1.44,2.33-2.07,3.37-2.6,4.26L739.2,1078l-1.06,1.76c-2.76,4.59-5,8.46-6.81,11.49l-1,1.67c-.7,1.21-1.3,2.24-1.78,3.09l-.23.4ZM146.23,1072.9c-1.31-1.49-85.78-96.39-100.78-177.11C51.93,936.11,75.69,1044.09,146.23,1072.9Zm71.64-54.09c9-28.9,100.3-326.46,75.81-397.34C287.44,659.89,237.79,952.53,217.87,1018.81Zm-56.49-23c54.71-187.89,54-285.79,51.11-316.25C209.63,719.35,162.12,991.57,161.38,995.82Zm-5.77-65.47s-1.44-205.92-9.36-231.12C143.37,720.11,140.49,875.63,155.61,930.35Zm-5.4,21.34a27,27,0,0,0,2,2.42C151.57,953.37,150.89,952.56,150.21,951.69Zm-.66-.87a115.66,115.66,0,0,1-6.73-10.76C116,890.22,89.7,762.22,88.41,722.27c-26.91,116.49,21.93,204,42.43,234.27A80,80,0,0,0,139,967.63c-1-1.19-3.95-5-8.11-11.09C102,909.74,90.45,808.86,91.77,795.39c-.54,31.1,31.78,110.58,51.05,144.67A84.9,84.9,0,0,0,149.55,950.82Z" transform="translate(-0.25 -0.25)" />
			<path class="cls-1" d="M1054.17,773.75l-.1,0-.67.34c-.67.36-1.43.8-2.26,1.31l-1,.65-.55.35c-.63.41-1.29.85-2,1.33l-.7.48c-.72.5-1.47,1-2.25,1.6-1.05.76-2.16,1.57-3.33,2.45l-1.73,1.3c-.91.69-1.85,1.41-2.81,2.16l-3.54,2.76-4.07,3.25-3.75,3-2.82,2.32q-1.65,1.35-3.36,2.79-3.47,2.87-7.18,6c-1.59,1.34-3.2,2.71-4.85,4.12-13.23,11.29-28.41,24.67-44.75,39.45-1,.91-2,1.84-3.07,2.78l-3.1,2.81-5,4.59c-10.9,10-22.21,20.45-33.7,31.28q-1.65,1.54-3.32,3.13l-3.34,3.15q-6.66,6.3-13.39,12.76-3.36,3.21-6.72,6.46-5,4.85-10.09,9.76-3.23,3.13-6.45,6.29-5.16,5-10.28,10.12c-1.12,1.09-2.22,2.19-3.33,3.29L854,952.52l-3.29,3.29c-9.86,9.88-19.54,19.74-28.9,29.45-2,2-3.94,4.1-5.88,6.13-7.26,7.61-14.31,15.11-21.06,22.45q-5.67,6.15-11,12.14l-2.7,3-.07.07q-5.32,6-10.32,11.75c-8.11,9.37-15.49,18.28-22,26.57-.47.59-.92,1.18-1.37,1.76-.69.89-1.37,1.77-2,2.64q-1.9,2.49-3.67,4.89c-.45.6-.89,1.2-1.31,1.79q-3.25,4.44-6,8.56c-.44.64-.86,1.27-1.27,1.9-.61.92-1.19,1.82-1.76,2.71l-1.06,1.67c-.58.93-1.14,1.85-1.68,2.75l-.24.39.23-.4c.48-.85,1.08-1.88,1.78-3.09l1-1.67c1.77-3,4-6.9,6.81-11.49.35-.57.7-1.16,1.06-1.76l2.46-4.07,2.6-4.26,2.07-3.37c.48-.76,1-1.54,1.44-2.33,8.46-13.67,19.25-30.6,31.89-49.35,1.45-2.16,2.93-4.33,4.43-6.53s3-4.43,4.57-6.67c.76-1.11,1.54-2.24,2.33-3.37l2.37-3.41,2.41-3.43q1.2-1.72,2.43-3.45,4.89-6.93,10.06-14l2.59-3.56c6.08-8.32,12.4-16.76,18.94-25.23l2.81-3.63q2.08-2.69,4.2-5.37,2.34-3,4.72-6t4.78-6q8.22-10.15,16.78-20.16c.66-.78,1.32-1.55,2-2.32q3.82-4.46,7.73-8.85c.51-.59,1-1.18,1.56-1.76q2-2.26,4-4.51,3.33-3.69,6.7-7.31c.9-1,1.8-1.95,2.71-2.91l2.73-2.89q5.65-6,11.42-11.77c.47-.48.95-1,1.43-1.43l1.49-1.49,1.49-1.47q8.18-8.07,16.49-15.62,1.67-1.52,3.33-3l3.34-3c1.11-1,2.22-1.94,3.34-2.9s2.23-1.91,3.35-2.85q3.54-3,7.1-5.86l2.35-1.88,1.92-1.51c1.13-.89,2.26-1.76,3.4-2.63.84-.65,1.69-1.29,2.54-1.92l1.25-.94c1.69-1.27,3.38-2.5,5.08-3.71l1.7-1.21q5.09-3.6,10.19-6.91l2.4-1.53,2.4-1.5,2-1.23c.57-.35,1.13-.69,1.7-1s1.23-.74,1.84-1.09c1.09-.63,2.18-1.26,3.27-1.87l1.7-.95,1.7-.93c.56-.31,1.13-.61,1.7-.91,1.13-.6,2.27-1.19,3.4-1.77l1.7-.85,1.47-.72,1.7-.82c1.49-.71,3-1.4,4.47-2.05l.84-.37c2.77-1.22,5.54-2.34,8.3-3.38l2.23-.82,1.31-.47c1.08-.38,2.16-.74,3.23-1.09l1.87-.59,1.71-.52,1.43-.41c.65-.19,1.29-.37,1.94-.54l1.58-.42q2.47-.63,4.94-1.16l1.67-.35c1.14-.23,2.27-.44,3.41-.63.9-.16,1.79-.3,2.69-.43l1.42-.2,1.72-.21c1.26-.15,2.52-.28,3.77-.38L1049,774l1.73-.1C1051.88,773.8,1053,773.77,1054.17,773.75Z" transform="translate(-0.25 -0.25)" />
			<path class="cls-1" d="M357.9,727.19c0-1.21-.37-11.18.36-16.84.31,3.13,24.15,234.64,236.19,163.84,83.16-28.08,245-58.18,271.38-211.25,5.36,5.3,10.87,11.29,16.5,18,1.51.53,6.37,1.86,13.19,4.49C921.2,760.29,805.77,830.27,764,849,354.18,1021.73,357.38,743.4,357.9,727.31Z" transform="translate(-0.25 -0.25)" />
			<path class="cls-2" d="M791,368.21c14.4,2.88,14.4,16.74,11.88,20-.33.6-.64,1.19-.95,1.78-1.61-.82-3.21-.51-6.4-.51a11.77,11.77,0,0,0-5.55,1.09,30.86,30.86,0,0,0-9,5.73l-.24.2-.09.08-.58.51s0,0,0,0c-9.7,9.41-20.4,24.17-23.54,28.59,0-4.47,0-7.65-.13-9.07-.64-9,1.4-24,1.85-27.22l0-.25s0-.08,0-.13a.82.82,0,0,0,0-.18v0c.26-2.14,1.4-9.56,4.52-14.24a5.78,5.78,0,0,0,7.42.06.28.28,0,0,0,0,.06l1.26.18S776.61,365.33,791,368.21Z" transform="translate(-0.25 -0.25)" />
			<path class="cls-3" d="M801.94,390a4.13,4.13,0,0,1,.63.37c-9.28,17.58-15.05,31.69-17.44,42.12,0,0,0-.11,0-.16,1.76-17.5-2.85-30.29-5-35.19h0l.55-.54.09-.08.24-.2a35.48,35.48,0,0,1,9-5.73,10.31,10.31,0,0,1,4.5-.68c3.6,0,5.18-.39,7,.88Z" transform="translate(-0.25 -0.25)" />
			<path class="cls-1" d="M776.73,623.39c3-.22,39.67-9.42,89.1,39.55C839.49,816,677.61,846.11,594.45,874.19c-212,70.8-235.88-160.71-236.19-163.84a0,0,0,0,1,0,0c17.2,29.74,44.58,63.17,83.53,75.3h0c7.43,12.27,44,63.72,113,21.61,15.48-9.12,88-52.32,102.36-62.4,8.56-6,38.85-29.3,59.38-62.1v0c14-22.35,23.43-49.11,18.37-77.8-1.34-6-2.67-18.49-3.34-29.12,1.21-3.93,3.72-11.56,6.1-15.45-1.54,5.37-3,13.45-.36,19.85,2.16,2.88,6,7.92,5.28,12.24C744.81,593.63,773.85,618.35,776.73,623.39Z" transform="translate(-0.25 -0.25)" />
			<path class="cls-4" d="M780.12,397.11c2.18,4.9,6.79,17.69,5,35.19,0,.05,0,.11,0,.16h0s0,.08,0,.12c-3.25,14.16-2.19,22.08-2.39,24.72.36,5.76-8.64,38.16-10.8,47.88-3.6,8.28-12.24,22.32-13,25.92s-9,9.36-13.32,9.36C754,528.1,756.51,453,756.58,425.7,759.72,421.28,770.42,406.52,780.12,397.11Z" transform="translate(-0.25 -0.25)" />
			<path d="M762.9,374.57a5.63,5.63,0,0,1-2-5.23s0-.07,0-.11c4.42-43.22-18.17-110.53-23.53-124.34a5.8,5.8,0,0,1-.37-2.51c4.72-63.48-18.84-120.19-28-134.69a8.65,8.65,0,0,0-1-1.41,293.92,293.92,0,0,0-50.51-43.65c-116.79-78.72-227.3-11.82-231.68-9.11C552.87-51.21,628.09,23.34,681.21,67.07c64.32,55.2,81.12,126.72,86.31,151.68,14.8,45.12,4.41,127.44,2.73,133,2.76,8.51.28,21.82.07,22.91h0A5.78,5.78,0,0,1,762.9,374.57Z" transform="translate(-0.25 -0.25)" />
			<path class="cls-4" d="M737.73,560.33h0c-2.38,3.89-4.89,11.52-6.1,15.45-.47,1.51-.74,2.48-.74,2.48A61.56,61.56,0,0,1,727,587h0c-11.67,21.56-37.44,40.26-94.73,91.61-39,41.52-75.17,62.43-98.57,72.19l0,0c-1.73-.71-58-24.43,0-41.45,39.53-24.48,69.77-23,68.33-81.36,4.32-41.76,25-113.76,89.89-121,21-5.76,52.67-1.73,18.83-99.15-8.64-21.81-9.58-25.57-27.84-41.73,9.12-2.88,10.56-7.44,7.68-8.64-4.32-.72-8.64-4.8-12.24-7.7-28.56-23.62-66.48-19-85.85-15.08.93-.46,36.85-17.93,68.58-10.82,6.94-.93,5.31-16.15-13.32-22.39a6.4,6.4,0,0,1,1.26-.84h0c2.13-.68,38.08-10.62,71.8,75.31,14.4-5,11.92-22.59,10.44-43.92,0,0,3.6-46.42-30.94-72.35.76.35,26.4,12.05,11.5-15.37-15.12-27.84-59-115.21-54.34-181.68A293.92,293.92,0,0,1,708,106.28a8.65,8.65,0,0,1,1,1.41c9.19,14.5,32.75,71.21,28,134.69a5.8,5.8,0,0,0,.37,2.51c5.36,13.81,27.95,81.12,23.53,124.34,0,0,0,.07,0,.11a5.63,5.63,0,0,0,2,5.23c-3.12,4.68-4.26,12.1-4.52,14.24v0a.82.82,0,0,1,0,.18c0,.05,0,.09,0,.13l0,.25c-.45,3.18-2.49,18.24-1.85,27.22.1,1.42.15,4.6.13,9.07C756.51,453,754,528.1,745.65,540.47c3.6,5.4-2.88,14.76-6.48,18A8.78,8.78,0,0,0,737.73,560.33Z" transform="translate(-0.25 -0.25)" />
			<path class="cls-4" d="M735,604.91c5.06,28.69-4.39,55.45-18.37,77.8,19.29-67.56-77.43,9.7-79.54,11.4C670.46,662.39,723.81,607.83,727,587h0a61.56,61.56,0,0,0,3.91-8.7s.27-1,.74-2.48C732.3,586.42,733.63,598.9,735,604.91Z" transform="translate(-0.25 -0.25)" />
			<path class="cls-2" d="M438,660.33l.14,0h0c2.87.93,22.72,7.63,33.36,19.18,8.12-1.46,5.34-11,22.94-15.59h0c21.15-3.6,44.5-14.2,69.39-36.38,17.64-24.48,35.64-50.76,30.6-52.56h0c-1.29-1.62-12.07-15.06-20.51-25.19-23-25.2-76-31.68-85.32-30.24-10.44,4-41.4-5-55.08-7.92-50.72-6.16-68.28,29.91-69.85,33.39h0l-.3.14a4.86,4.86,0,0,0-.54.33,3,3,0,0,0-.51.41l-.19.2a2.26,2.26,0,0,0-.28.35,2.85,2.85,0,0,0-.26.41l0,.05a3.75,3.75,0,0,0-.21.5,3.8,3.8,0,0,0-.15.51.53.53,0,0,0,0,.12,2.87,2.87,0,0,0-.05.31.77.77,0,0,0,0,.15l0,.25c0,.17,0,.35,0,.54a11.37,11.37,0,0,0,.47,3c4,14,17.28,74.52,49,92.88a174.42,174.42,0,0,0,25.17,12.24,2.61,2.61,0,0,0,.32,1.14,1.59,1.59,0,0,0,.13.22,3.6,3.6,0,0,0,.91.95,3.75,3.75,0,0,0,.36.24l.17.1.15.08Zm-131.19-87.2q-.93-2-1.82-4.2l-.05-.12c-11.11-27.14-16.44-68.6-16.44-77.12,0-9-1.08-25.74-2-31.26-2.64-28.08,2-58.2,3.48-65.22.9-2.88,4.68-13.86,4.32-16.74,4.14-5.76,4-12.78,3.6-15.84a17.14,17.14,0,0,0-.59-3c10-3.87-3.54-8.45-3.54-8.45-1-1.86-1.84-3.45-2.35-4.53,0-13.32,12.78-13.86,16.2-14.4s5.52-32.34,7-39.54a32.31,32.31,0,0,1-1.06-9.82s17.81-58.23,93.69-54.71h0C511,262.5,414.81,405.47,461.18,338.08c17.65-25.66,35.18-28.48,49.92-23.85,37.6,72.56,8.17,99.52,8.17,99.52-14.7-14.34-39.42-27.55-72.06,13.93-7.56-1.33-38.93-6.37-38.73,12a20.33,20.33,0,0,0,2,7.08s14.76.84,24.12,9.66a133.42,133.42,0,0,0,15.23,8.35h0c-7.8-29.63,5.64-28.33,12.84-18.44s14.76,8.47,21.6,0,19,13.57,19,13.57c-9,7.68-20.36,19.26-1.74,14,5-6.48,2.16-19.08,53.28-13.32,0,0,23.47-.33,25.46-11.83v0a9.15,9.15,0,0,0,.1-2.36l-.07-.1a45.51,45.51,0,0,0-.67-6.42c6,6.51,2.18,13.55.68,18.23,28.29-1.78,11.58-29.16,8-36.36-5.73-8.64-29.55-27-35.31-29.52,3.85-1.2,4.38-5.53,2.86-11.54,27.4,18.72,73.46,32.06,84,33.14-93.26-63.88-86-103.17-76.77-118.68,2-2.59,4.1-5.13,6.27-7.59l0,0A232.89,232.89,0,0,1,602,257.73c36.35-.13,103.84,3.31,129.24,74.3,1.48,21.33,4,38.88-10.44,43.92C687.09,290,651.14,300,649,300.64h0a6.4,6.4,0,0,0-1.26.84c-.68-.23-1.38-.45-2.1-.65-18.67-1.92-65.94,13.27-66.55,37.84-4.45,3.9,5,6.47,6,6.73l.06,0h0c4.81,3.1,9.41,5.85,13.81,8.29l.11.07c52.38,34.57,80.65,27.56,91.53,26.82-16.89-8.22-14.49-11.72-12-13h0c.61-.21,1.18-.41,1.71-.61h0c1-.34,1.79-.65,2.5-.87,18.26,16.16,19.2,19.92,27.84,41.73,33.84,97.42,2.16,93.39-18.83,99.15-64.9,7.2-85.57,79.2-89.89,121,1.44,58.32-28.8,56.88-68.33,81.36-58.07,17-1.77,40.74,0,41.45l0,0c-11.77,4.91-20.3,7-24.31,7.49C485.85,755.39,458,753,433.05,752c-47.52-23-57.12-35.52-64.8-47C350,662.27,307.89,577.73,306.81,573.23Zm288.55-7.82c-4.3-17.76-25.46-38.4-37.89-49.92-15.78-23.52-65.88-23-65.88-23-11.59,2.88,16.39,12.48,29.12,15.84C564.11,520.67,586.17,555.71,595.31,565.31Zm-139.7-61.92c10.56-1,33.25-9.6-11.94-17.28-31.74,0-62.93,10.56-82.61,49C361.06,535.07,392.25,489.47,455.61,503.39ZM427.29,326.75c11.15-6,10.68-6.94,8.9-7.88,0,0,2.38-1.72-1.22-3.88s-71.28-29-97.92-2.25c-2.64,2.49-2.88,8.73,0,10.41h0c4.74-4.27,6.67-1.49,9.74-1.67,11,19.18,35,17,44.49,15.36,8.61-3.83,29-9.25,34-10.54A15.32,15.32,0,0,0,427.29,326.75Z" transform="translate(-0.25 -0.25)" />
			<path d="M562.82,228.52c7.17-6.58,26.06-8.48,38.83-8.09,44.64,5.4,70.2,22,98.64,39.24h0C734.85,285.61,731.25,332,731.25,332c-25.4-71-92.89-74.43-129.24-74.3-9,0-16.09.28-20.16-.22C559.2,243.35,556.66,234.2,562.82,228.52Z" transform="translate(-0.25 -0.25)" />
			<path class="cls-2" d="M637.06,694.11c2.11-1.7,98.83-79,79.54-11.4v0c-20.53,32.8-50.82,56.11-59.38,62.1-14.4,10.08-86.88,53.28-102.36,62.4-69,42.11-105.61-9.34-113-21.61,42.72,13.3,99.37.94,171.79-70.07,4.36-3.68,12.89-11.4,23.42-21.41Z" transform="translate(-0.25 -0.25)" />
			<path class="cls-2" d="M711.81,244.31c14.9,27.42-10.74,15.72-11.5,15.37h0c-28.44-17.28-54-33.84-98.64-39.24-12.77-.39-31.66,1.51-38.83,8.09-2-2.09-3.31-6.68-14.81-28.33s-57.6-15.76-69-6.4-38.68,15.94-38.68,15.94c-3.7-2.55-10.9-4.2-23.4-3.94-18.71,1.2-71.38,3.19-94.61,43.07,4.28-10.34,9.05-19.6,11.81-25.31,23-109.44,69.6-149.28,83.52-163.2q4-3.49,8-6.75l.13-.08c4.38-2.71,114.89-69.61,231.68,9.11C652.81,129.1,696.69,216.47,711.81,244.31Z" transform="translate(-0.25 -0.25)" />
			<path d="M358.27,710.32h0a265,265,0,0,1-16.09-32.91c-1.88-4.64-3.35-8.69-4.42-11.93h0a63.58,63.58,0,0,1-2.14-7.52c-2.45-13.91-23-68.86-29.07-84.79l.22,0,.05.1c1.08,4.5,43.2,89,61.44,131.76,7.68,11.52,17.28,24,64.8,47,25,1,52.8,3.36,76.32,6.24,4-.48,12.54-2.58,24.31-7.49,23.4-9.76,59.6-30.67,98.57-72.19C689.54,627.24,715.31,608.54,727,587c-3.17,20.85-56.52,75.41-89.92,107.13l0,0c-10.53,10-19.06,17.73-23.42,21.41-72.42,71-129.07,83.37-171.79,70.07h0C402.85,773.49,375.47,740.06,358.27,710.32Z" transform="translate(-0.25 -0.25)" />
			<path d="M664.22,346.69c-12.64-5.78-31-8.54-38.21-9.62-30.69-.24-44.17,7.31-40.89,8.33-1-.26-10.48-2.83-6-6.73a12,12,0,0,1,2.52-1.61c2-.39,5.81-1.36,10.85-2.36h0c19.37-3.89,57.29-8.54,85.85,15.08,3.6,2.9,7.92,7,12.24,7.7,2.88,1.2,1.44,5.76-7.68,8.64-.71.22-1.54.53-2.5.87h0a7.74,7.74,0,0,0-1.71.61h0c-11.18,3.93-35.54,10.53-79.49-13.82l-.11-.07c-4.4-2.44-9-5.19-13.81-8.29A263.08,263.08,0,0,0,623.65,360c14.71,4.14,25.73,5.25,33.82,5,14.59-.51,19.66-5.55,19.66-5.55C676.53,354.07,671.26,349.91,664.22,346.69Z" transform="translate(-0.25 -0.25)" />
			<path class="cls-4" d="M678.62,367.61c-2.45,1.28-4.85,4.78,12,13-10.88.74-39.15,7.75-91.53-26.82C643.08,378.14,667.44,371.54,678.62,367.61Z" transform="translate(-0.25 -0.25)" />
			<path class="cls-2" d="M664.22,346.69c7,3.22,12.31,7.38,12.91,12.7,0,0-5.07,5-19.66,5.55C657.47,364.94,666.73,353.87,664.22,346.69Z" transform="translate(-0.25 -0.25)" />
			<path class="cls-3" d="M664.22,346.69c2.51,7.18-6.75,18.25-6.75,18.25-8.09.28-19.11-.83-33.82-5,0,0-9.16-15,2.36-22.9C633.25,338.15,651.58,340.91,664.22,346.69Zm-18.58,1.69c1.52-.21,4.49-5.43,2.73-5.07s-3.28-.48-7.48-.6c-7.08-3.48-9.72-.72-10,2.28-.32,4.46,3.69,4.92,6.17,4.75a4.59,4.59,0,1,0,9.1.83A4.51,4.51,0,0,0,645.64,348.38Z" transform="translate(-0.25 -0.25)" />
			<path class="cls-4" d="M647.74,301.48c18.63,6.24,20.26,21.46,13.32,22.39-31.73-7.11-67.65,10.36-68.58,10.82h0c-5,1-8.82,2-10.85,2.36a12,12,0,0,0-2.52,1.61c.61-24.57,47.88-39.76,66.55-37.84C646.36,301,647.06,301.25,647.74,301.48Z" transform="translate(-0.25 -0.25)" />
			<path class="cls-2" d="M648.37,343.31c1.76-.36-1.21,4.86-2.73,5.07a4.58,4.58,0,0,0-8.54,1.36c-2.48.17-6.49-.29-6.17-4.75.24-3,2.88-5.76,10-2.28C645.09,342.83,646.61,343.67,648.37,343.31Z" transform="translate(-0.25 -0.25)" />
			<path d="M637.1,349.74a4.58,4.58,0,0,1,8.54-1.36,4.51,4.51,0,0,1,.56,2.19,4.59,4.59,0,1,1-9.1-.83Z" transform="translate(-0.25 -0.25)" />
			<path class="cls-2" d="M585.12,345.4c-3.28-1,10.2-8.57,40.89-8.33-11.52,7.92-2.36,22.9-2.36,22.9a263.08,263.08,0,0,1-38.44-14.54h0Z" transform="translate(-0.25 -0.25)" />
			<path class="cls-2" d="M639.91,413.75c-10.54-1.08-56.6-14.42-84-33.14-5.2-20.75-34.69-61.5-35.24-62.26,18.67,10.1,30.7,28,28.78,11.42-1.28-11.07,5-23.41,13.69-34.7C553.88,310.58,546.65,349.87,639.91,413.75Z" transform="translate(-0.25 -0.25)" />
			<path class="cls-4" d="M363.68,545.07a9.41,9.41,0,0,1,.9-.33h0a8.14,8.14,0,0,1,1.47-.29l.77-.07.45,0c6-.19,14.54,2.74,17.64,2.95,5.28,12.78,16.77,24.91,30.34,37.88h0c4,3.84,8.22,7.76,12.5,11.79,41,28.8,85.68,15.84,92.16,13,1.6-.71,6.31-3.5,12.5-7.29,18.8-11.51,51.22-32.31,51.22-32.31,4.57-.27,5.76,2.88,10.79,4.67h0c5,1.8-13,28.08-30.6,52.56C539,649.77,515.61,660.37,494.46,664h0c-22.32,3.81-42.18-.17-58.76-6.51a174.42,174.42,0,0,1-25.17-12.24c-31.68-18.36-45-78.84-49-92.88a11.37,11.37,0,0,1-.47-3c0-.19,0-.37,0-.54l0-.25a.77.77,0,0,1,0-.15,2.87,2.87,0,0,1,.05-.31.53.53,0,0,1,0-.12,3.8,3.8,0,0,1,.15-.51,3.75,3.75,0,0,1,.21-.5l0-.05a2.85,2.85,0,0,1,.26-.41,2.26,2.26,0,0,1,.28-.35l.19-.2a3,3,0,0,1,.51-.41,4.86,4.86,0,0,1,.54-.33ZM525,639.47c2.5-2,9.72-15.12-7.56-8.64s-20.34,9-22,8.64c-3.6-.9-26.28-4.86-46.62-7-16.92-4.86-26.62-6.84-33.56-13.32-3.16-2-22.45-12.18-4.78,11.52C422.19,645.23,468.27,684.11,525,639.47Z" transform="translate(-0.25 -0.25)" />
			<path class="cls-2" d="M581.85,257.51c4.07.5,11.16.25,20.16.22a232.89,232.89,0,0,0-32.57,29.72l0,0a29.55,29.55,0,0,0-6.27,7.59c-8.66,11.29-15,23.63-13.69,34.7,1.92,16.55-10.11-1.32-28.78-11.42h0a54.13,54.13,0,0,0-9.56-4.11c-14.74-4.63-32.27-1.81-49.92,23.85C414.81,405.47,511,262.5,407.13,228.14a168.91,168.91,0,0,1,22.32,2.61c4.76,0,21.16-14,10.92-21,0,0,27.32-6.58,38.68-15.94s57.44-15.28,69,6.4,12.84,26.24,14.81,28.33C556.66,234.2,559.2,243.35,581.85,257.51Z" transform="translate(-0.25 -0.25)" />
			<path class="cls-4" d="M588.36,421.67c3.57,7.2,20.28,34.58-8,36.36,1.5-4.68,5.33-11.72-.68-18.23-1.65-9.2-7.12-23.09-24.82-29.53-8.52,7.2-14.67,11.36-20.36,18.64l-1.24.32c-2.21-1.52-7-8.63-14-15.48,0,0,29.43-27-8.17-99.52a54.13,54.13,0,0,1,9.56,4.11h0c.55.76,30,41.51,35.24,62.26,1.52,6,1,10.34-2.86,11.54C558.81,394.67,582.63,413,588.36,421.67Z" transform="translate(-0.25 -0.25)" />
			<path class="cls-3" d="M521,554.27c-1.07-.24-2.14-.45-3.2-.63-.53-.1-1.06-.18-1.59-.26s-1-.16-1.57-.22-.77-.1-1.15-.13l-1.18-.11c-.35,0-.7-.06-1-.07s-.52,0-.78-.05l-.95,0h0c-.65,0-1.28,0-1.91,0l-.87,0-.87.05c-.71,0-1.41.12-2.1.22-3.27.38-7.46.72-12.19.91-4.13.17-8.67.23-13.36.1-.9,0-1.81-.05-2.72-.1-.51,0-1,0-1.55-.07-1.36-.06-2.73-.15-4.1-.26l-1.68-.14-.77-.07-1.67-.16-.91-.1-.14,0L462.9,553c-1.26-.16-2.5-.34-3.74-.54q-.71-.1-1.41-.24c-.5-.08-1-.17-1.48-.27s-1.23-.24-1.83-.37l-1.79-.4-1.76-.44c-.64-.17-1.28-.34-1.9-.53s-1.12-.33-1.66-.51l-.48-.16c-.51-.16-1-.34-1.5-.52l-.05,0c-.42-.15-.84-.31-1.25-.48s-.82-.33-1.22-.51a32.59,32.59,0,0,1-6.42-3.61l-.52-.24-.55-.25-1.23-.51-.68-.26c-.7-.25-1.46-.51-2.28-.75l-1-.28c-.74-.2-1.53-.39-2.36-.56l-.85-.17c-1.14-.22-2.37-.41-3.68-.56h0a60.2,60.2,0,0,0-8-.32c-2.12.06-4.4.23-6.81.53h0a84.66,84.66,0,0,0-11.12,2.2l-1.22.33a111.63,111.63,0,0,0-11.2,3.8c-3.1-.21-11.66-3.14-17.64-2.95l-.45,0-.77.07a8.14,8.14,0,0,0-1.47.29h0a6,6,0,0,0-.9.32c1.57-3.48,19.13-39.55,69.85-33.39,13.68,2.88,44.64,11.88,55.08,7.92,9.36-1.44,62.28,5,85.32,30.24C582.37,560,593.15,573.4,594.44,575c-5-1.79-6.22-4.94-10.79-4.67,0,0-3.74-.93-9-1.94-6.92-1.33-16.46-2.79-23.43-2.38a99.7,99.7,0,0,0-12.35-6A109.37,109.37,0,0,0,521,554.27Z" transform="translate(-0.25 -0.25)" />
			<path class="cls-3" d="M574.68,568.41c5.23,1,9,1.94,9,1.94s-32.42,20.8-51.22,32.31c4.82-11.84-5.84-14.49-5.84-14.49a42.56,42.56,0,0,0,0-4.86s4.86,6.12,7.38,7.38c1.8.72,7.2,4.32,12.06-11.7,1.8,1.8,3.42,6.12,6.48,4s8.28-7.38,8.46-10.26C563.49,575.21,571.1,585.55,574.68,568.41Z" transform="translate(-0.25 -0.25)" />
			<path class="cls-4" d="M580.34,446.22a23.83,23.83,0,0,1,0,2.46v0c-2,11.5-25.46,11.83-25.46,11.83s-38.88-10.8-47.52-4c-1.19.94-2.58,2.07-4,3.3,0,0-12.18-22-19-13.57s-14.4,9.9-21.6,0-20.64-11.19-12.84,18.44h0c-.37-.53-12.24-17.07-18.3-18s-21.05,0-21.05,0a20.33,20.33,0,0,1-2-7.08c-.2-18.36,31.17-13.32,38.73-12,32.64-41.48,57.36-28.27,72.06-13.93,7,6.85,11.77,14,14,15.48l1.24-.32C561.53,422.28,579.07,444.56,580.34,446.22Z" transform="translate(-0.25 -0.25)" />
			<path class="cls-2" d="M557.42,515.39c12.43,11.52,33.59,32.16,37.89,49.92-9.14-9.6-31.2-44.64-74.65-57.12-12.73-3.36-40.71-13-29.12-15.84C491.54,492.35,541.64,491.87,557.42,515.39Z" transform="translate(-0.25 -0.25)" />
			<path class="cls-3" d="M579.67,439.8a45.51,45.51,0,0,1,.67,6.42c-1.27-1.66-18.81-23.94-45.85-17.31,5.69-7.28,11.84-11.44,20.36-18.64C572.55,416.71,578,430.6,579.67,439.8Z" transform="translate(-0.25 -0.25)" />
			<path class="cls-2" d="M468.36,595.27a5.41,5.41,0,0,1-2.61-4.94,22.71,22.71,0,0,1-4.57,3.61,13.65,13.65,0,0,1-1.37.71c-5.77.15-19.1-7.64-23-11.81-.72-.77-1.13-1.42-1.1-1.87a6,6,0,0,1-4.15.3C426.4,580,421.11,574,421.11,574s-.19-.65-.58-1.69a35,35,0,0,0-2.12-4.61c-18,14.76-16-6.12-16-9.18-9.9-7-6.26-15-6.26-15l1.22-.33s4.8,4.26,11.12-2.2h0c2.41-.3,4.69-.47,6.81-.53.24,1.73,3.3,22,8,.32h0c1.31.15,2.54.34,3.68.56l.85.17c.83.17,1.62.36,2.36.56.35,1.11,4.41,13.18,15.14,6.89l.05,0c.49.18,1,.36,1.5.52l.48.16c.54.18,1.1.35,1.66.51s1.26.36,1.9.53l1.76.44,1.79.4c.6.13,1.21.26,1.83.37s1,.19,1.48.27.94.17,1.41.24c1.24.2,2.48.38,3.74.54l1.74.21.14,0s2.8,21.54,13.4.9c4.69.13,9.23.07,13.36-.1,0,0,11.36,4.47,8.53,14.83s3.65-13.26,9.41-16h0l.95,0c.26,0,.52,0,.78.05s.69,0,1,.07l1.18.11c.38,0,.76.08,1.15.13s1,.14,1.57.22,1.06.16,1.59.26c1.06.18,2.13.39,3.2.63.25.18,9.38,7,6.89,13s3.73-6.46,11-7.28a99.7,99.7,0,0,1,12.35,6c7-.41,16.51,1.05,23.43,2.38-3.58,17.14-11.19,6.8-13.71,4.28-.18,2.88-5.4,8.1-8.46,10.26s-4.68-2.16-6.48-4c-4.86,16-10.26,12.42-12.06,11.7-2.52-1.26-7.38-7.38-7.38-7.38a42.56,42.56,0,0,1,0,4.86c-.72,4.68-6.66,5-14.58,6.84a22.29,22.29,0,0,1-8.67-1.07,10.39,10.39,0,0,1-5-4,5.21,5.21,0,0,1-1.52,4,18.37,18.37,0,0,1-2.26,1.79c-3.06,2.34-22.68-.36-25.2,0A5.68,5.68,0,0,1,468.36,595.27Z" transform="translate(-0.25 -0.25)" />
			<path d="M554.85,460.55c-51.12-5.76-48.24,6.84-53.28,13.32-18.62,5.28-7.28-6.3,1.74-14,1.44-1.23,2.83-2.36,4-3.3C516,449.75,554.85,460.55,554.85,460.55Z" transform="translate(-0.25 -0.25)" />
			<path class="cls-2" d="M526.59,588.17s10.66,2.65,5.84,14.49c-6.19,3.79-10.9,6.58-12.5,7.29-6.48,2.88-51.12,15.84-92.16-13-4.28-4-8.48-8-12.5-11.79h0c0-.46.16-11.93,5.26-12.93.39,1,.58,1.69.58,1.69s5.29,6.06,10.43,7.32c0,0,1.14,7.59,5.25,1.57,3.92,4.17,17.25,12,23,11.81a13.65,13.65,0,0,0,1.37-.71s4.13,6.34,7.18,1.33a5.68,5.68,0,0,0,1,.46c2.52-.36,22.14,2.34,25.2,0a18.37,18.37,0,0,0,2.26-1.79s2.19,3.61,6.53,0A22.29,22.29,0,0,0,512,595C519.93,593.21,525.87,592.85,526.59,588.17Z" transform="translate(-0.25 -0.25)" />
			<path class="cls-3" d="M527.85,567.29c2.49-6-6.64-12.84-6.89-13A109.37,109.37,0,0,1,538.9,560C531.58,560.83,525.33,573.41,527.85,567.29Z" transform="translate(-0.25 -0.25)" />
			<path class="cls-2" d="M517.41,630.83c17.28-6.48,10.06,6.67,7.56,8.64-56.7,44.64-102.78,5.76-114.48-8.82-17.67-23.7,1.62-13.5,4.78-11.52,6.94,6.48,16.64,8.46,33.56,13.32,20.34,2.16,43,6.12,46.62,7C497.07,639.83,500.13,637.31,517.41,630.83Z" transform="translate(-0.25 -0.25)" />
			<path class="cls-3" d="M507.57,552.77c.63,0,1.26,0,1.91,0-5.76,2.78-12.23,26.39-9.41,16S491.54,554,491.54,554c4.73-.19,8.92-.53,12.19-.91.69-.1,1.39-.17,2.1-.22l.87-.05Z" transform="translate(-0.25 -0.25)" />
			<path class="cls-3" d="M498.33,590a10.39,10.39,0,0,0,5,4c-4.34,3.61-6.53,0-6.53,0A5.21,5.21,0,0,0,498.33,590Z" transform="translate(-0.25 -0.25)" />
			<path class="cls-4" d="M494.42,664c-17.6,4.57-14.82,14.13-22.94,15.59C460.84,668,441,661.32,438.12,660.39h0l-.14,0-.25-.13-.15-.08-.17-.1a3.75,3.75,0,0,1-.36-.24,3.6,3.6,0,0,1-.91-.95,1.59,1.59,0,0,1-.13-.22,2.61,2.61,0,0,1-.32-1.14C452.24,663.81,472.1,667.79,494.42,664Z" transform="translate(-0.25 -0.25)" />
			<path class="cls-3" d="M475.46,554c.91,0,1.82.08,2.72.1-10.6,20.64-13.4-.9-13.4-.9l.91.1,1.67.16.77.07,1.68.14c1.37.11,2.74.2,4.1.26C474.43,553.94,475,554,475.46,554Z" transform="translate(-0.25 -0.25)" />
			<path class="cls-3" d="M468.36,595.27c-3.05,5-7.18-1.33-7.18-1.33a22.71,22.71,0,0,0,4.57-3.61A5.41,5.41,0,0,0,468.36,595.27Z" transform="translate(-0.25 -0.25)" />
			<path class="cls-2" d="M443.67,486.11c45.19,7.68,22.5,16.32,11.94,17.28-63.36-13.92-94.55,31.68-94.55,31.68C380.74,496.67,411.93,486.11,443.67,486.11Z" transform="translate(-0.25 -0.25)" />
			<path class="cls-3" d="M444.05,548.47c.41.17.83.33,1.25.48-10.73,6.29-14.79-5.78-15.14-6.89l1,.28c.82.24,1.58.5,2.28.75l.68.26,1.23.51.55.25.52.24a32.59,32.59,0,0,0,6.42,3.61C443.23,548.14,443.64,548.31,444.05,548.47Z" transform="translate(-0.25 -0.25)" />
			<path d="M449.84,464.76a133.42,133.42,0,0,1-15.23-8.35c-9.36-8.82-24.12-9.66-24.12-9.66s14.88-1,21.05,0S449.47,464.23,449.84,464.76Z" transform="translate(-0.25 -0.25)" />
			<path d="M440.37,209.73c10.24,7.05-6.16,21-10.92,21a168.91,168.91,0,0,0-22.32-2.61h0c-75.88-3.52-93.69,54.71-93.69,54.71.3-10.49,4.32-22.84,8.91-34a.08.08,0,0,0,0,0C345.59,209,398.26,207,417,205.79,429.47,205.53,436.67,207.18,440.37,209.73Z" transform="translate(-0.25 -0.25)" />
			<path class="cls-2" d="M425.31,326.29c-2.74-.73-7-1.8-18.19.29,0,0,5.87-7.44,2.76-16.95a162.75,162.75,0,0,1,24.37,8,6.75,6.75,0,0,0,1.94,1.24c1.78.94,2.25,1.86-8.9,7.88A15.32,15.32,0,0,1,425.31,326.29Z" transform="translate(-0.25 -0.25)" />
			<path d="M435,315c3.6,2.16,1.22,3.88,1.22,3.88a6.75,6.75,0,0,1-1.94-1.24,162.75,162.75,0,0,0-24.37-8h0c-16.66-4-30.19-3.93-40.87-2.05-21.67,3.81-31.59,15.14-31.95,15.57h0c-2.88-1.68-2.64-7.92,0-10.41C363.69,286,431.37,312.83,435,315Z" transform="translate(-0.25 -0.25)" />
			<path class="cls-3" d="M435.69,581c0,.45.38,1.1,1.1,1.87-4.11,6-5.25-1.57-5.25-1.57A6,6,0,0,0,435.69,581Z" transform="translate(-0.25 -0.25)" />
			<path class="cls-3" d="M423.26,540.77c-4.67,21.64-7.73,1.41-8-.32A60.2,60.2,0,0,1,423.26,540.77Z" transform="translate(-0.25 -0.25)" />
			<path d="M407.12,326.58c11.17-2.09,15.45-1,18.19-.29-5,1.29-25.41,6.71-34,10.54-9.45,1.65-33.45,3.82-44.49-15.36h.09a57.57,57.57,0,0,0,27.34,9.74,69.1,69.1,0,0,0,20.9-1.82C399.83,328.11,403.78,327.21,407.12,326.58Z" transform="translate(-0.25 -0.25)" />
			<path class="cls-3" d="M418.41,567.65a35,35,0,0,1,2.12,4.61c-5.1,1-5.26,12.47-5.26,12.93-13.57-13-25.06-25.1-30.34-37.88a111.63,111.63,0,0,1,11.2-3.8s-3.64,7.94,6.26,15C402.39,561.53,400.41,582.41,418.41,567.65Z" transform="translate(-0.25 -0.25)" />
			<path class="cls-3" d="M409.88,309.63c3.11,9.51-2.76,16.95-2.76,16.95-3.34.63-7.29,1.53-12,2.81a69.1,69.1,0,0,1-20.9,1.82C362,318.86,369,307.57,369,307.57c10.68-1.88,24.21-1.93,40.87,2.05Zm-12.8,3.77c4.5-1.53-1-4.32-1-4.32-12.06-2.07-13.32-.54-14.76,0-4.52,8.34-.35,9.12,5,7.95a5.39,5.39,0,0,0-.11,1.07,5.05,5.05,0,1,0,8.41-3.77C395.62,313.94,396.48,313.6,397.08,313.4Z" transform="translate(-0.25 -0.25)" />
			<path class="cls-2" d="M396.09,309.08s5.49,2.79,1,4.32c-.6.2-1.46.54-2.49.93a5,5,0,0,0-3.36-1.28,5.05,5.05,0,0,0-4.94,4c-5.31,1.17-9.48.39-5-7.95C382.77,308.54,384,307,396.09,309.08Z" transform="translate(-0.25 -0.25)" />
			<path d="M396.28,318.1a5,5,0,1,1-10.1,0,5.39,5.39,0,0,1,.11-1.07,5.05,5.05,0,0,1,4.94-4,5.05,5.05,0,0,1,5,5.05Z" transform="translate(-0.25 -0.25)" />
			<path class="cls-2" d="M346.8,321.47c-3.07.18-5-2.6-9.74,1.67.36-.43,10.28-11.76,31.95-15.57,0,0-7,11.29,5.22,23.64a57.57,57.57,0,0,1-27.34-9.74Z" transform="translate(-0.25 -0.25)" />
			<path class="cls-1" d="M361.06,857.63c-5.76-2.88-11.53-7.2-20.65-28.32s-9.84-77.16-10.92-91.2c-32.4,75.6-34.56,187.92-35.81,222.48-18.45-79.56,43.5-293.16,44.07-295.11,1.07,3.24,2.54,7.29,4.42,11.93C319,709.35,353.37,845.15,361.06,857.63Z" transform="translate(-0.25 -0.25)" />
			<path class="cls-1" d="M293.68,621.47c24.49,70.88-66.83,368.44-75.81,397.34C237.79,952.53,287.44,659.89,293.68,621.47Z" transform="translate(-0.25 -0.25)" />
			<path class="cls-1" d="M212.49,679.57c2.88,30.46,3.6,128.36-51.11,316.25C162.12,991.57,209.63,719.35,212.49,679.57Z" transform="translate(-0.25 -0.25)" />
			<path class="cls-1" d="M146.25,699.23c7.92,25.2,9.36,231.12,9.36,231.12C140.49,875.63,143.37,720.11,146.25,699.23Z" transform="translate(-0.25 -0.25)" />
			<path class="cls-1" d="M88.41,722.27c1.29,40,27.57,168,54.41,217.79-19.27-34.09-51.59-113.57-51-144.67C90.45,808.86,102,909.74,130.84,956.54,110.34,926.31,61.5,838.76,88.41,722.27Z" transform="translate(-0.25 -0.25)" />
			<path class="cls-1" d="M45.45,895.79c15,80.72,99.47,175.62,100.78,177.11C75.69,1044.09,51.93,936.11,45.45,895.79Z" transform="translate(-0.25 -0.25)" />
		</g>
	</g>
</svg>
