<svg xmlns="http://www.w3.org/2000/svg" viewBox="0 0 1081.58 1081.56">
	<title>
		principles-wheel
	</title>
	<g id="Layer_2" data-name="Layer 2">
		<g id="Layer_4" data-name="Layer 4">
			<path d="M415.89,14.81,422,13.4l11.57,50.17L427.46,65Z" />
			<path d="M454,6.89l8.07-1L492.17,45,486.91,2.78,492.84,2l6.37,51.09-7.15.89L460.81,13.44l5.46,43.79-5.93.74Z" />
			<path d="M526.53,0l8.14.13L559,43.08,559.72.54l6,.09-.83,51.48-7.2-.12L532.39,7.44l-.72,44.13-6-.1Z" />
			<path d="M614,57.86a25.69,25.69,0,0,1-10-3.57,24.19,24.19,0,0,1-7.15-6.71,24.86,24.86,0,0,1-3.9-8.95,28.06,28.06,0,0,1-.32-10.32l.09-.57a28.53,28.53,0,0,1,3.33-9.87,25.06,25.06,0,0,1,6.36-7.46,24.27,24.27,0,0,1,8.73-4.3,25.69,25.69,0,0,1,10.51-.46,25.34,25.34,0,0,1,9.89,3.52,23.83,23.83,0,0,1,7,6.65,25,25,0,0,1,3.83,9,28.45,28.45,0,0,1,.28,10.31l-.09.57a28.8,28.8,0,0,1-3.29,9.84A25.42,25.42,0,0,1,633.08,53a23.68,23.68,0,0,1-8.63,4.39A24.76,24.76,0,0,1,614,57.86Zm.75-5a18.38,18.38,0,0,0,7.88-.39A16.52,16.52,0,0,0,629,49.06,19.79,19.79,0,0,0,633.66,43a27.13,27.13,0,0,0,2.55-8.31l.09-.58a25.91,25.91,0,0,0,0-8.25,19.77,19.77,0,0,0-2.61-7.12,17.39,17.39,0,0,0-5.11-5.29A18,18,0,0,0,621,10.63a19.6,19.6,0,0,0-8.14.36,16.31,16.31,0,0,0-6.52,3.44,19.35,19.35,0,0,0-4.62,6.06,27.19,27.19,0,0,0-2.5,8.21l-.09.57a24,24,0,0,0,.19,8.69,20.76,20.76,0,0,0,3,7.17,17.71,17.71,0,0,0,5.31,5.14A18.47,18.47,0,0,0,614.78,52.88Z" />
			<path d="M670.27,15.46l6,1.71,2.15,47.9,27.32-39.4,5.68,1.63L680,71.84l-7.2-2.07Z" />
			<path d="M746.51,40.79,754.08,44l-3.89,54.21-5.71-2.4,1.08-15.56L726,72l-10.3,11.68-5.45-2.28ZM729.52,68,746,74.93l2-27.88Z" />
			<path d="M798,71l-13.09-7.28,2.45-4.41L819,76.91l-2.45,4.41L803.46,74l-22.57,40.59-5.48-3Z" />
			<path d="M842.72,92.17l24.45,17.41-2.92,4.11L844.9,99.91l-10.19,14.31,15.6,11.11-2.93,4.1-15.6-11.11-10.9,15.31,20.41,14.53-2.92,4.11L812.86,134.1Z" />
			<path d="M903.22,165.76l9.88-1.42-4.78-7.74,4.53-2.29,3.56,8.45,6.47-7.17,3.71,3.72-7.18,6.46,8.4,3.51-2.3,4.53L917.73,169l-1.43,9.88-4.94-.77,2.35-9.87L904,170.75Z" />
			<path d="M973.94,217l8.91,12.66a30.09,30.09,0,0,1,3.35,6.14,16.7,16.7,0,0,1,1.23,6.13,12.68,12.68,0,0,1-1.39,5.73,13.85,13.85,0,0,1-4.56,5l-.23.16a14.44,14.44,0,0,1-5.15,2.39,12.27,12.27,0,0,1-4.93.12,14.61,14.61,0,0,1-4.59-1.7,20.77,20.77,0,0,1-4.15-3.15l-9.6,26-4-5.71,9.5-25.42-4.56-6.48-18.31,12.88-3.61-5.12Zm-10.57,26.89c2.12,3,4.38,4.87,6.79,5.52s4.89.08,7.48-1.74l.24-.17A10.77,10.77,0,0,0,981,244.3a7.09,7.09,0,0,0,1.08-3.48,9.27,9.27,0,0,0-.79-3.81,21.81,21.81,0,0,0-2.33-4.13L973.42,225l-15.61,11Z" />
			<path d="M1009.66,271.28,1024,297.67l-4.43,2.4-11.33-20.88-15.44,8.37,9.13,16.84-4.43,2.4L988.34,290l-16.52,9,11.94,22-4.43,2.4L964.4,295.81Z" />
			<path d="M1036.12,336.91,1030.49,323l4.67-1.9,13.6,33.57-4.67,1.89-5.62-13.88-43,17.44-2.36-5.81Z" />
			<path d="M1058,381.88l1.62,6.05-22.54,6,7,26.16,22.54-6,1.62,6.05-49.74,13.28-1.62-6.05,22.12-5.91-7-26.15-22.12,5.9-1.62-6Z" />
			<path d="M1074.12,452.24l1,6.18-50.84,8.09-1-6.19Z" />
			<path d="M1079.4,490.73l.45,8.12-41.09,27.38,42.49-2.36.33,6-51.4,2.87-.4-7.19,42.62-28.41-44.07,2.46-.33-6Z" />
			<path d="M1081.11,562.94l-.43,6.25L1056,567.48l23.24,24.06-.49,7-23.41-24.57-28.09,22.16.52-7.54,26.65-21.18-25.07-1.73.44-6.25Z" />
			<path d="M1056.21,621l6.85,7.24,3.57-8.37,4.48,2.39-4.85,7.78,9.59,1.14-.89,5.18-9.42-2.14,2,8.89-5,.74-.54-9.15-8.89,4.53-2.23-4.48,9.42-3.78-7.65-6.43Z" />
			<path d="M1055.1,708.3l-5.22,14.57a31.71,31.71,0,0,1-2.85,6,14.46,14.46,0,0,1-3.84,4.2,10.29,10.29,0,0,1-5,1.87,14.75,14.75,0,0,1-6.41-1l-.27-.09a12.66,12.66,0,0,1-5.49-3.77q-2.18-2.58-2.11-7.22-3.18,4.82-6.75,6a12.6,12.6,0,0,1-8.32-.5l-.27-.1a15.53,15.53,0,0,1-5.6-3.27,11.49,11.49,0,0,1-3.05-4.73,15.54,15.54,0,0,1-.71-5.91,25.1,25.1,0,0,1,1.51-6.88l6-16.6Zm-49.62.79q-1.89,5.28-.55,8.6t5.77,4.9l.27.09c2.95,1.06,5.45,1,7.5-.25s3.79-3.81,5.2-7.74l3.55-9.89-17.9-6.42Zm23.32,6.22q-1.92,5.36-.71,8.31c.8,2,2.67,3.49,5.62,4.54l.27.1q4.08,1.46,6.73-.34t4.47-6.89l3.11-8.67L1032,706.5Z" />
			<path d="M976.71,761.27q4-8,10.68-10t15,2.27l29.14,14.81-2.84,5.58-28.58-14.53a28.62,28.62,0,0,0-6.48-2.48,11.63,11.63,0,0,0-5.16-.12,8.7,8.7,0,0,0-4.1,2.24,16.71,16.71,0,0,0-3.27,4.6,19.32,19.32,0,0,0-1.85,5.24,9,9,0,0,0,.4,4.8,11.78,11.78,0,0,0,3.17,4.52,28.46,28.46,0,0,0,6.57,4.35l27.75,14.1-2.83,5.59-28.44-14.45q-8.4-4.27-11-11T976.71,761.27Z" />
			<path d="M997.7,829.72,994.31,835,951,807.19l3.38-5.28Z" />
			<path d="M976.17,861.42l-3.84,5-36.71-28.44L921.2,856.54l-4-3.08,18.25-23.57Z" />
			<path d="M939.16,906.58l-9.54,9.7a31.1,31.1,0,0,1-9.47,6.85,22.62,22.62,0,0,1-9.5,2.06,21.36,21.36,0,0,1-9.08-2.17,30.34,30.34,0,0,1-8.24-5.89l-.47-.45a31.75,31.75,0,0,1-6.05-8.12,21.78,21.78,0,0,1-2.44-9.12,22.68,22.68,0,0,1,1.86-9.64,31.52,31.52,0,0,1,6.79-9.73l9.45-9.6ZM896.72,883.5a24,24,0,0,0-5.06,7.2,16.41,16.41,0,0,0-1.41,7.3,17.4,17.4,0,0,0,2,7.19,27.37,27.37,0,0,0,5.21,6.9l.41.4a28.77,28.77,0,0,0,6.62,5,16.72,16.72,0,0,0,7,2,15.8,15.8,0,0,0,7.33-1.48,24.93,24.93,0,0,0,7.44-5.45l4.9-5-29.51-29Z" />
			<path d="M849.75,961l-.26,10,8.44-3.42,1.49,4.85-8.92,2.1,6,7.58-4.29,3L847,976.93l-4.87,7.69-4.08-3,6.07-6.87-9.5-3.06,1.58-4.74,9.35,4-.89-10Z" />
			<path d="M787.87,1021.63l-5.59,2.83L759,978.55l5.59-2.83Z" />
			<path d="M752.81,1038.48l-7.6,2.92-38.64-30.75,15.25,39.73-5.58,2.14-18.45-48.06,6.72-2.58,40.09,31.89-15.82-41.2,5.58-2.15Z" />
			<path d="M688.56,1061.25l-6,1.45L657,1022.12l-4.27,47.76-5.74,1.38,5.24-54.21,7.28-1.75Z" />
			<path d="M618.8,1075.85,589,1079.38l-.59-5,23.6-2.79-2.07-17.45-19,2.25-.59-5,19-2.25-2.21-18.67-24.88,3-.59-5,31.1-3.68Z" />
			<path d="M557.77,1081.56l-8.13-.13-24.36-43-.69,42.55-6-.1.84-51.47,7.19.12,25.28,44.55.71-44.13,6,.1Z" />
			<path d="M476.32,1072.37l14.86,1.87-.63,5-35.93-4.53.63-5,14.86,1.87,5.81-46.07,6.22.78Z" />
			<path d="M398.38,1042.54l-8,5.92,7.87,4.56-2.92,4.16-7.12-5.77-2.32,9.38-5-1.52,3.28-9.09-9.06.87-.12-5.08,9.15.59-3.4-9.38,4.71-1.66,2.59,9.82,7.33-6.81Z" />
			<path d="M304.4,970.86a25.51,25.51,0,0,1,10.61,3,25.81,25.81,0,0,1,8.27,6.64,24.42,24.42,0,0,1,4.57,8.67,25,25,0,0,1,.76,9.74,27.78,27.78,0,0,1-3.07,9.85l-.26.51a28.39,28.39,0,0,1-6.38,8.25,24.81,24.81,0,0,1-8.44,5,24,24,0,0,1-9.65,1.22,27.4,27.4,0,0,1-18.29-9.54,23.92,23.92,0,0,1-4.45-8.59,24.86,24.86,0,0,1-.7-9.72,28.63,28.63,0,0,1,3.11-9.84l.27-.51a28,28,0,0,1,7.83-9.49,24.79,24.79,0,0,1,10.49-4.77l-2.41-9.39,5.09-1.49Zm8.27,7.48a17.38,17.38,0,0,0-6.89-2l2.11,8.4-5.08,1.49-2.38-9.59a18.17,18.17,0,0,0-7.82,4,26.14,26.14,0,0,0-6.15,8l-.27.52a25.74,25.74,0,0,0-2.65,7.8,19.52,19.52,0,0,0,.15,7.56,17.45,17.45,0,0,0,3.1,6.67,18.28,18.28,0,0,0,6.26,5.13,19.6,19.6,0,0,0,7.8,2.32,16.26,16.26,0,0,0,7.29-1.13,19.42,19.42,0,0,0,6.35-4.22,27.62,27.62,0,0,0,5-6.94l.27-.52a23.74,23.74,0,0,0,2.65-8.27,20.59,20.59,0,0,0-.5-7.76,17.66,17.66,0,0,0-3.34-6.59A18.43,18.43,0,0,0,312.67,978.34Z" />
			<path d="M258,938.89q7.26,5.19,8.26,12t-4.49,14.53l-19,26.61-5.1-3.63,18.62-26.11a28,28,0,0,0,3.42-6,11.48,11.48,0,0,0,.89-5.09,8.68,8.68,0,0,0-1.61-4.38,16.59,16.59,0,0,0-4.06-3.92,19.07,19.07,0,0,0-4.9-2.61,9.07,9.07,0,0,0-4.81-.32,11.8,11.8,0,0,0-4.94,2.46,28.13,28.13,0,0,0-5.28,5.85l-18.08,25.34-5.1-3.63,18.52-26q5.49-7.68,12.52-9.29T258,938.89Z" />
			<path d="M186.73,949.32l-22.17-20.25,3.4-3.72,17.54,16,11.85-13-14.14-12.92,3.39-3.72,14.15,12.92,12.67-13.88-18.5-16.89,3.4-3.73,23.12,21.13Z" />
			<path d="M171.69,860.47a25.27,25.27,0,0,1,4.73,7.48,16.77,16.77,0,0,1,1.15,6.77,14.72,14.72,0,0,1-1.62,6,23.58,23.58,0,0,1-3.71,5.28l-4-4.57a20.62,20.62,0,0,0,2.63-3.61,9.68,9.68,0,0,0,1.25-4.05,10.45,10.45,0,0,0-.77-4.62,18.75,18.75,0,0,0-3.5-5.4,15,15,0,0,0-3.54-3,11.09,11.09,0,0,0-4-1.53,9.43,9.43,0,0,0-4,.15,8.81,8.81,0,0,0-3.58,1.92,11.25,11.25,0,0,0-2.48,2.92,6.2,6.2,0,0,0-.79,3.31,11.79,11.79,0,0,0,1,4.15,39.64,39.64,0,0,0,3,5.49,52.45,52.45,0,0,1,3.49,6.55,18.67,18.67,0,0,1,1.58,5.83,10.56,10.56,0,0,1-.82,5.2,13.66,13.66,0,0,1-3.67,4.72,12.56,12.56,0,0,1-5,2.68,13.28,13.28,0,0,1-5.58.33,16.56,16.56,0,0,1-5.65-2,19.79,19.79,0,0,1-5.21-4.35q-5.1-5.86-5.35-11.7t4.44-11l3.69,4.24q-3.09,3.92-2.8,7.49t3.82,7.64q3.5,4,7,4.53a7.61,7.61,0,0,0,6.31-1.91,11.21,11.21,0,0,0,2.22-2.55,5.39,5.39,0,0,0,.75-3,12.36,12.36,0,0,0-1-4.08,36.29,36.29,0,0,0-3.12-5.73,45.52,45.52,0,0,1-3.65-6.84,18.6,18.6,0,0,1-1.47-6,10.87,10.87,0,0,1,1-5.32,15.34,15.34,0,0,1,3.94-4.9,13.65,13.65,0,0,1,5.42-2.94,14.75,14.75,0,0,1,6.07-.36,17.43,17.43,0,0,1,6.12,2.16A21.28,21.28,0,0,1,171.69,860.47Z" />
			<path d="M101.5,846.91l8.5,12.33-4.15,2.86L85.3,832.28l4.15-2.86L98,841.75l38.23-26.35,3.56,5.15Z" />
			<path d="M71.19,808.42,68.12,803,113,777.69l3.07,5.46Z" />
			<path d="M91.52,732.36a25.83,25.83,0,0,1,2.2,10.37,24.28,24.28,0,0,1-2,9.61,24.71,24.71,0,0,1-5.58,8A27.81,27.81,0,0,1,77.57,766l-.53.23a28.48,28.48,0,0,1-10.15,2.34,25,25,0,0,1-9.69-1.49A24.36,24.36,0,0,1,49,762a27.47,27.47,0,0,1-8.11-19,23.75,23.75,0,0,1,2-9.46,24.68,24.68,0,0,1,5.6-8,28.29,28.29,0,0,1,8.63-5.64l.53-.23a28.62,28.62,0,0,1,10.11-2.36,25.41,25.41,0,0,1,9.64,1.39,23.65,23.65,0,0,1,8.26,5A24.72,24.72,0,0,1,91.52,732.36Zm-4.64,2a18.47,18.47,0,0,0-4.47-6.51,16.53,16.53,0,0,0-6.26-3.62,19.66,19.66,0,0,0-7.59-.75,27.14,27.14,0,0,0-8.41,2.19l-.54.23a26.08,26.08,0,0,0-7,4.36,20,20,0,0,0-4.68,6,17.37,17.37,0,0,0-1.82,7.12,18,18,0,0,0,1.58,7.94A19.85,19.85,0,0,0,52.25,758a16.5,16.5,0,0,0,6.36,3.74,19.35,19.35,0,0,0,7.58.75,27.26,27.26,0,0,0,8.3-2.18l.54-.23a24,24,0,0,0,7.29-4.72A20.43,20.43,0,0,0,86.84,749a17.66,17.66,0,0,0,1.59-7.22A18.28,18.28,0,0,0,86.88,734.34Z" />
			<path d="M23.91,700.18l-2.11-7.86,34.6-35.23-41.1,11-1.55-5.77L63.47,649l1.87,7L29.45,692.5l42.63-11.44,1.55,5.77Z" />
			<path d="M22,593.49l-8.46-5.3-1.35,9L7.26,596,10,587.26l-9.58,1.3L0,583.32,9.66,583l-4.14-8.12,4.68-2L13,581.66l7.47-6.61,3.28,3.78-8.17,6,9,4.31Z" />
			<path d="M1.14,509l.51-6.24,46.29,3.78,1.91-23.47,5,.41-2.43,29.71Z" />
			<path d="M7.57,451.33l5.69-29.48,5,1-4.5,23.33L31,449.47l3.64-18.81,4.95,1L35.9,450.43,54.35,454l4.76-24.6,5,1-6,30.75Z" />
			<path d="M25,378.94l2.51-7.82,54.35-.83-1.9,5.9-15.59.28-6.51,20.22,12.54,9.25-1.81,5.62Zm28.6,14.56,5.46-17-27.95.39Z" />
			<path d="M43.86,327.44l6.54-14a29.66,29.66,0,0,1,3.65-6,16.48,16.48,0,0,1,4.7-4.12,12.49,12.49,0,0,1,5.65-1.66A13.76,13.76,0,0,1,71,303.14l.27.12a14.43,14.43,0,0,1,4.63,3.27,12.26,12.26,0,0,1,2.56,4.21,14.32,14.32,0,0,1,.81,4.83,20.26,20.26,0,0,1-.66,5.17l27.35-4.66-3,6.33-26.77,4.45L72.87,334l20.3,9.45-2.64,5.68Zm28.58-4.24q2.34-5,1.41-8.64c-.63-2.41-2.38-4.29-5.25-5.62l-.26-.12A10.92,10.92,0,0,0,64,307.68a7,7,0,0,0-3.55.81,9,9,0,0,0-2.91,2.57,22.19,22.19,0,0,0-2.41,4.08l-4.08,8.75,17.3,8.05Z" />
			<path d="M73.23,268.89,77.58,262l49.36,1.55L91,240.84l3.19-5.05,43.52,27.5-3.85,6.09-51.2-1.61,37.31,23.58-3.19,5Z" />
		</g>
	</g>
</svg>
