<svg xmlns="http://www.w3.org/2000/svg" viewBox="0 0 700.71 667.32"><defs><style>.cls-1{fill:#fbb03b;}</style></defs><title>star</title><g id="Layer_2" data-name="Layer 2"><g id="Layer_4" data-name="Layer 4"><path class="cls-1" d="M359,6.31l76.45,235.27a9.13,9.13,0,0,0,8.69,6.32H691.55a9.13,9.13,0,0,1,5.37,16.53L496.79,409.83a9.15,9.15,0,0,0-3.32,10.22l76.45,235.26a9.14,9.14,0,0,1-14.06,10.22L355.73,520.13a9.14,9.14,0,0,0-10.75,0L144.85,665.53a9.14,9.14,0,0,1-14.06-10.22l76.44-235.26a9.13,9.13,0,0,0-3.31-10.22L3.78,264.43A9.14,9.14,0,0,1,9.16,247.9H256.53a9.13,9.13,0,0,0,8.69-6.32L341.66,6.31A9.14,9.14,0,0,1,359,6.31Z"/></g></g></svg>