<svg xmlns="http://www.w3.org/2000/svg" viewBox="0 0 319.6 319.6">
	<title>
		ma-logo
	</title>
	<g id="Layer_2" data-name="Layer 2">
		<g id="selfPortrait">
			<polygon points="26.17 198.72 75.2 319.6 28.13 319.6 28.13 261.32 26.17 198.72" />
			<polygon points="90.31 319.6 139.44 198.41 137.6 261.32 137.6 319.6 90.31 319.6" />
			<polygon points="245.32 194.3 270.81 264.3 219.93 264.3 245.32 194.3" />
			<polygon points="276.67 280.44 290.96 319.6 199.89 319.6 213.97 280.44 276.67 280.44" />
			<polygon points="319.6 0 319.6 319.6 311.21 319.6 253.95 169.94 236.69 169.94 179.53 319.6 157.33 319.6 157.33 169.94 131.74 169.94 82.81 292.05 33.88 169.94 8.39 169.94 8.39 319.6 0 319.6 0 0 319.6 0" />
		</g>
	</g>
</svg>
